<?xml version="1.0" encoding="utf-8"?>
<!-- Generator: Adobe Illustrator 21.0.2, SVG Export Plug-In . SVG Version: 6.00 Build 0)  -->
<svg version="1.1" xmlns="http://www.w3.org/2000/svg" xmlns:xlink="http://www.w3.org/1999/xlink" x="0px" y="0px"
	 viewBox="0 0 1920 1080" style="enable-background:new 0 0 1920 1080;" xml:space="preserve">
<metadata><?xpacket begin="﻿" id="W5M0MpCehiHzreSzNTczkc9d"?>
<x:xmpmeta xmlns:x="adobe:ns:meta/" x:xmptk="Adobe XMP Core 5.6-c137 79.159768, 2016/08/11-13:24:42        ">
   <rdf:RDF xmlns:rdf="http://www.w3.org/1999/02/22-rdf-syntax-ns#">
      <rdf:Description rdf:about=""
            xmlns:ExtensisFontSense="http://www.extensis.com/meta/FontSense/">
         <ExtensisFontSense:slug>
            <rdf:Bag>
               <rdf:li>
                  <rdf:Description>
                     <ExtensisFontSense:Family>NB International</ExtensisFontSense:Family>
                     <ExtensisFontSense:Version>2.000</ExtensisFontSense:Version>
                     <ExtensisFontSense:OutlineFileSize>0</ExtensisFontSense:OutlineFileSize>
                     <ExtensisFontSense:KerningChecksum>0</ExtensisFontSense:KerningChecksum>
                     <ExtensisFontSense:Foundry>--</ExtensisFontSense:Foundry>
                     <ExtensisFontSense:FontKind>OpenType - TT</ExtensisFontSense:FontKind>
                     <ExtensisFontSense:Checksum>1405487278</ExtensisFontSense:Checksum>
                     <ExtensisFontSense:PostScriptName>NBInternationalBoldWebfont</ExtensisFontSense:PostScriptName>
                     <ExtensisFontSense:FontSense_1.2_Checksum>1405487278</ExtensisFontSense:FontSense_1.2_Checksum>
                  </rdf:Description>
               </rdf:li>
            </rdf:Bag>
         </ExtensisFontSense:slug>
      </rdf:Description>
   </rdf:RDF>
</x:xmpmeta>
                                                                                                    
                                                                                                    
                                                                                                    
                                                                                                    
                                                                                                    
                                                                                                    
                                                                                                    
                                                                                                    
                                                                                                    
                                                                                                    
                                                                                                    
                                                                                                    
                                                                                                    
                                                                                                    
                                                                                                    
                                                                                                    
                                                                                                    
                                                                                                    
                                                                                                    
                                                                                                    
                           
<?xpacket end="w"?></metadata>
<style type="text/css">
	.st0{display:none;}
	.st1{display:inline;}
	.st2{fill:#ED1C24;}
	.st3{font-family:'NBInternationalBoldWebfont';}
	.st4{font-size:402.5197px;}
	.st5{letter-spacing:-27;}
	.st6{letter-spacing:-32;}
	.st7{letter-spacing:-36;}
	.st8{letter-spacing:-46;}
	.st9{letter-spacing:-19;}
	.st10{letter-spacing:-24;}
	.st11{letter-spacing:-26;}
	.st12{letter-spacing:-30;}
	.st13{letter-spacing:-33;}
	.st14{letter-spacing:-44;}
	.st15{letter-spacing:-28;}
	.st16{letter-spacing:-35;}
	.st17{letter-spacing:-37;}
	.st18{letter-spacing:-22;}
</style>
<g id="live_x5F_type" class="st0">
	<text transform="matrix(1 0 0 1 82.4205 340.9135)" class="st1"><tspan x="0" y="0" class="st2 st3 st4 st5">c</tspan><tspan x="198.7" y="0" class="st2 st3 st4 st6">o</tspan><tspan x="402.7" y="0" class="st2 st3 st4 st7">n</tspan><tspan x="600.5" y="0" class="st2 st3 st4 st5">t</tspan><tspan x="728" y="0" class="st2 st3 st4 st8">e</tspan><tspan x="911.5" y="0" class="st2 st3 st4 st9">x</tspan><tspan x="1122.7" y="0" class="st2 st3 st4 st10">t</tspan></text>
	<text transform="matrix(1 0 0 1 82.4205 655.8978)" class="st1"><tspan x="0" y="0" class="st2 st3 st4 st6">fi</tspan><tspan x="205.2" y="0" class="st2 st3 st4 st11">r</tspan><tspan x="333.5" y="0" class="st2 st3 st4 st12">s</tspan><tspan x="516.2" y="0" class="st2 st3 st4 st10">t</tspan></text>
	<text transform="matrix(1 0 0 1 82.4205 946.7178)" class="st1"><tspan x="0" y="0" class="st2 st3 st4 st10">c</tspan><tspan x="201.9" y="0" class="st2 st3 st4 st13">r</tspan><tspan x="322.9" y="0" class="st2 st3 st4 st10">e</tspan><tspan x="528.6" y="0" class="st2 st3 st4 st14">a</tspan><tspan x="722.1" y="0" class="st2 st3 st4 st15">t</tspan><tspan x="848.4" y="0" class="st2 st3 st4 st16">i</tspan><tspan x="925.6" y="0" class="st2 st3 st4 st17">v</tspan><tspan x="1115.9" y="0" class="st2 st3 st4 st6">i</tspan><tspan x="1196.8" y="0" class="st2 st3 st4 st18">t</tspan><tspan x="1328.7" y="0" class="st2 st3 st4 st10">y</tspan></text>
</g>
<g id="Layer_2">
	<path d="M95.8,239.1c0-32.1,8.6-57.8,25.9-77s41.4-28.9,72.3-28.9c25.4,0,46.6,6.4,63.5,19.3c16.9,12.8,27.1,30.1,30.5,51.7
		c0.1,0.5,0.1,0.9-0.1,1.2c-0.2,0.3-0.5,0.5-0.9,0.6c-0.4,0.1-0.8,0.2-1.2,0.2h-45.4c-1.4,0-2.4-0.7-2.8-2
		c-7.3-19.1-21.9-28.7-43.6-28.7c-16.2,0-28.6,5.9-37.1,17.7c-8.5,11.8-12.8,27.1-12.8,46c0,18.9,4.3,34.1,12.8,45.9
		c8.5,11.7,20.9,17.6,37.1,17.6c12.7,0,22.4-2.3,29-7c6.6-4.6,11.8-11.8,15.4-21.5c0.4-1.3,1.3-2,2.8-2h45.4c0.4,0,0.8,0.1,1.2,0.2
		c0.4,0.1,0.7,0.3,0.9,0.6c0.2,0.3,0.2,0.7,0.1,1.2c-4.2,22.7-14.6,40.1-31.3,52.4c-16.6,12.3-37.8,18.4-63.5,18.4
		c-30.8,0-54.9-9.6-72.2-28.9C104.5,296.7,95.8,271.1,95.8,239.1z M294.4,239c0-32.1,8.9-57.7,26.7-77c17.8-19.2,42.2-28.9,73-28.9
		s55.3,9.7,73.3,29.1c18,19.4,27,45,27,76.8c0,31.7-9,57.3-27,76.7c-18,19.4-42.5,29.1-73.3,29.1s-55.2-9.7-73-29
		C303.3,296.5,294.4,270.9,294.4,239z M356,193.7c-8.8,10.9-13.2,26-13.2,45.3c0,19.3,4.4,34.4,13.2,45.3
		c8.8,10.9,21.5,16.3,38.2,16.3c16.9,0,29.8-5.4,38.6-16.3s13.3-26,13.3-45.3c0-19.3-4.4-34.4-13.3-45.3
		c-8.9-10.9-21.8-16.3-38.6-16.3C377.6,177.4,364.9,182.8,356,193.7z M504,338.9V139.3c0-1.3,0.7-2,2-2h38.3c2,0,3.1,0.7,3.5,2
		l4.5,12.3c0.4,0.9,1,1.4,2,1.6c0.9,0.1,1.8-0.3,2.6-1.2c4.5-4.6,11.5-8.8,21.1-12.8c9.6-4,18.5-6,26.6-6c12.3,0,23.4,1.7,33.2,5.1
		c9.8,3.4,17.9,8.1,24.2,14c6.4,5.9,11.7,13,16,21.2c4.3,8.3,7.3,17,9.1,26.1c1.8,9.2,2.7,19,2.7,29.5v109.9c0,1.3-0.7,2-2,2h-44.4
		c-1.3,0-2-0.7-2-2v-110c0-8.7-1.4-16.7-4.3-24.2c-2.9-7.5-7.8-13.9-14.8-19.3c-7-5.4-15.6-8.1-25.6-8.1c-14.7,0-25.7,4.6-33.1,13.7
		c-7.4,9.1-11.1,20.4-11.1,33.7v114.1c0,1.3-0.7,2-2,2h-44.4C504.6,340.9,504,340.3,504,338.9z M688.3,177.6v-38.3c0-1.3,0.7-2,2-2
		h33c1.3,0,2-0.7,2-2.2V80.9c0-1.3,0.7-2,2-2h44.4c1.3,0,2,0.7,2,2v54.2c0,1.4,0.7,2.2,2,2.2h41.1c1.3,0,2,0.7,2,2v38.3
		c0,1.3-0.7,2-2,2h-41.1c-1.3,0-2,0.7-2,2v102.2c0,3.9,1.4,7.1,4.1,9.4c2.8,2.4,6.2,3.5,10.4,3.5h28.5c1.3,0,2,0.7,2,2v40.3
		c0,1.3-0.7,2-2,2h-31.4c-21.2,0-36.5-4.4-45.9-13.3c-9.4-8.8-14.1-23.4-14.1-43.5V181.5c0-1.3-0.7-2-2-2h-33
		C688.9,179.6,688.3,178.9,688.3,177.6z M819.7,239.1c0-31.7,9-57.3,27.1-76.8c18.1-19.5,41.8-29.2,71.1-29.2
		c29.3,0,53.1,9.8,71.1,29.4c18.1,19.6,27.1,45.1,27.1,76.6c-0.3,6.3-1,11.8-2.2,16.5c-0.4,1.3-1,2-2,2H872c-1.3,0-2,0.7-2,2
		c0,11.4,4.5,21.1,13.5,29.1c9,8,20.5,12,34.5,12c19.9,0,32.9-6,38.9-18.1c0.7-1.3,1.8-2,3.3-2h47c0.7,0,1.2,0.2,1.7,0.6
		c0.5,0.4,0.6,0.9,0.5,1.4c-4.3,19.3-14.8,34.5-31.5,45.6c-16.7,11.1-36.7,16.7-59.8,16.7c-29.4,0-53.1-9.8-71.1-29.3
		C828.7,296,819.7,270.6,819.7,239.1z M870,215.7c0,1.1,0.5,1.6,1.6,1.6H963c1,0,1.6-0.5,1.6-1.6c0-9.5-4-18.2-12-26.3
		c-8-8-19.5-12.1-34.6-12.1c-14.9,0-26.7,4.1-35.2,12.2C874.3,197.8,870,206.5,870,215.7z M999.8,339.9c-0.4-0.7-0.3-1.4,0.2-2.2
		l72.7-96.3c0.7-1,0.7-2.1,0-3.1l-72.7-97.9c-0.5-0.8-0.6-1.5-0.2-2.2c0.4-0.7,1-1,1.8-1h49.5c1.2,0,2.2,0.7,3.1,2l46.4,61.5
		c0.4,0.7,0.9,1,1.6,1c0.7,0,1.2-0.3,1.6-1l46.4-61.5c0.9-1.3,2.1-2,3.5-2h49.1c0.8,0,1.4,0.3,1.8,1c0.4,0.7,0.3,1.4-0.2,2.2
		l-72.9,97.9c-0.7,1.1-0.7,2.1,0,3.1l72.9,96.3c0.5,0.8,0.6,1.5,0.2,2.2c-0.4,0.7-1,1-1.8,1h-50.7c-1.6,0-2.8-0.7-3.7-2l-45-59.9
		c-0.9-1.4-1.8-1.4-2.8,0l-44.8,59.9c-0.9,1.3-2,2-3.1,2h-51.1C1000.8,340.9,1000.2,340.6,999.8,339.9z M1210.5,177.6v-38.3
		c0-1.3,0.7-2,2-2h33c1.3,0,2-0.7,2-2.2V80.9c0-1.3,0.7-2,2-2h44.4c1.3,0,2,0.7,2,2v54.2c0,1.4,0.7,2.2,2,2.2h41.1c1.3,0,2,0.7,2,2
		v38.3c0,1.3-0.7,2-2,2h-41.1c-1.3,0-2,0.7-2,2v102.2c0,3.9,1.4,7.1,4.1,9.4c2.8,2.4,6.2,3.5,10.4,3.5h28.5c1.3,0,2,0.7,2,2v40.3
		c0,1.3-0.7,2-2,2h-31.4c-21.2,0-36.5-4.4-45.9-13.3c-9.4-8.8-14.1-23.4-14.1-43.5V181.5c0-1.3-0.7-2-2-2h-33
		C1211.1,179.6,1210.5,178.9,1210.5,177.6z M83.8,492.6v-38.3c0-1.3,0.7-2,2-2h32.8c1.4,0,2.1-0.5,2.1-1.6v-21.4
		c0-18.6,5.5-32.8,16.4-42.6c10.9-9.8,25.5-14.5,43.5-14.2h31.8c1,0,1.6,0.7,1.6,2v40.3c0,1.3-0.7,2-2.2,2h-28.4
		c-4.2,0-7.6,1.2-10.4,3.5s-4.1,5.5-4.1,9.4v21c0,1.1,0.7,1.6,2.2,1.6H212c1.4,0,2.2,0.7,2.2,2v38.3c0,1.3-0.7,2-2.2,2h-40.7
		c-1.4,0-2.2,0.7-2.2,2v157.4c0,1.3-0.7,2-2,2h-44.4c-1.3,0-2-0.7-2-2V496.5c0-1.3-0.7-2-2.1-2H85.8
		C84.4,494.5,83.8,493.9,83.8,492.6z M232.2,427.7v-53.3c0-1.3,0.7-2,2-2h52.1c1.4,0,2.2,0.7,2.2,2v53.3c0,1.3-0.7,2-2.2,2h-52.1
		C232.8,429.7,232.2,429,232.2,427.7z M236.1,653.9V454.2c0-1.3,0.7-2,2.2-2h44.2c1.3,0,2,0.7,2,2v199.7c0,1.3-0.7,2-2,2h-44.2
		C236.8,655.9,236.1,655.2,236.1,653.9z M305.7,653.9V454.2c0-1.3,0.5-2,1.6-2H346c1.8,0,3.1,0.8,3.9,2.4l4.1,12c1,2,2.2,2.3,3.5,1
		c13-13,27.9-19.5,44.8-19.5h22c1.4,0,2.2,0.7,2.2,2v42.5c0,1.3-0.7,2-2.2,2h-26.1c-14.8,0-25.9,4.3-33.2,12.9
		c-7.3,8.6-11,19.4-11,32.5v114c0,1.3-0.7,2-2,2h-44.8C306.2,655.9,305.7,655.2,305.7,653.9z M425.4,589c0-1.3,0.7-1.9,2-1.9h46.4
		c1.3,0,2,0.7,2,2c0,7.2,3.5,13.4,10.6,18.7c7.1,5.2,17.4,7.9,30.9,7.9c27.2,0,40.8-7.7,40.8-23c0-2-0.3-3.7-0.8-5.3
		c-0.5-1.6-1.4-3-2.5-4.1c-1.2-1.2-2.4-2.2-3.5-3c-1.2-0.9-2.8-1.6-4.8-2.3s-3.8-1.2-5.3-1.7c-1.5-0.5-3.5-0.8-6-1.1
		s-4.4-0.5-5.8-0.6c-1.4-0.2-3.4-0.4-6-0.7c-2.6-0.3-4.4-0.5-5.6-0.6c-6.9-0.8-12.8-1.4-17.5-2c-4.7-0.5-10.7-1.6-17.9-3.1
		c-7.3-1.6-13.1-3.3-17.6-5.1c-4.5-1.8-9.1-4.3-14.1-7.5c-4.9-3.2-8.8-6.7-11.7-10.7c-2.9-4-5.3-8.9-7.2-14.6
		c-1.9-5.7-2.9-12.1-2.9-19.2c0-17.6,7.9-32.5,23.7-44.6s36-18.1,60.7-18.1c17.2,0,32.4,2.6,45.3,7.9c13,5.2,23.3,13.3,30.9,24.1
		c7.6,10.8,11.4,23.8,11.6,39c0,1.3-0.5,2-1.6,2h-44.6c-1.4,0-2.1-0.7-2.1-2c0-6.9-3.2-13-9.7-18.5c-6.4-5.5-16.4-8.2-29.8-8.2
		c-11.7,0-20.6,1.7-26.8,5.2c-6.2,3.5-9.3,8-9.3,13.6c0,2.5,0.8,4.8,2.3,6.7c1.5,1.9,3.3,3.5,5.3,4.6c2,1.1,4.9,2.2,8.8,3.1
		s7,1.6,9.6,1.9c2.5,0.4,6.2,0.9,10.9,1.5c1.7,0.3,4.3,0.7,8,1.1c5.2,0.7,9.2,1.3,12.1,1.7c2.9,0.4,7,1,12.4,1.8
		c5.4,0.8,9.7,1.6,12.9,2.6c3.2,1,7.2,2.3,12,4.1c4.8,1.8,8.6,3.7,11.5,5.8c2.9,2.1,6,4.7,9.3,7.7c3.3,3.1,5.9,6.4,7.8,10
		c1.8,3.6,3.4,7.8,4.6,12.7c1.2,4.9,1.9,10.2,1.9,16c0,21.4-7.9,37.9-23.8,49.7c-15.9,11.7-37.6,17.6-65.3,17.6
		c-14.6,0-27.8-2-39.6-5.9c-11.8-3.9-21.5-9.2-29-15.9c-7.5-6.7-13.3-14.2-17.3-22.6C427.4,607,425.4,598.2,425.4,589z M603.9,492.6
		v-38.3c0-1.3,0.7-2,2-2h33c1.3,0,2-0.7,2-2.2v-54.2c0-1.3,0.7-2,2-2h44.4c1.3,0,2,0.7,2,2v54.2c0,1.4,0.7,2.2,2,2.2h41.1
		c1.3,0,2,0.7,2,2v38.3c0,1.3-0.7,2-2,2h-41.1c-1.3,0-2,0.7-2,2v102.2c0,3.9,1.4,7.1,4.1,9.4c2.8,2.4,6.2,3.5,10.4,3.5h28.5
		c1.3,0,2,0.7,2,2v40.3c0,1.3-0.7,2-2,2h-31.4c-21.2,0-36.5-4.4-45.9-13.3c-9.4-8.8-14.1-23.4-14.1-43.5V496.5c0-1.3-0.7-2-2-2h-33
		C604.6,494.5,603.9,493.9,603.9,492.6z M95.8,844.9c0-32.1,8.6-57.8,25.9-77c17.3-19.3,41.4-28.9,72.3-28.9
		c25.4,0,46.6,6.4,63.5,19.3c16.9,12.8,27.1,30.1,30.5,51.7c0.1,0.5,0.1,0.9-0.1,1.2c-0.2,0.3-0.5,0.5-0.9,0.6
		c-0.4,0.1-0.8,0.2-1.2,0.2h-45.4c-1.4,0-2.4-0.7-2.8-2c-7.3-19.1-21.9-28.7-43.6-28.7c-16.2,0-28.6,5.9-37.1,17.7
		c-8.5,11.8-12.8,27.1-12.8,46c0,18.9,4.3,34.1,12.8,45.9c8.5,11.7,20.9,17.6,37.1,17.6c12.7,0,22.4-2.3,29-7
		c6.6-4.6,11.8-11.8,15.4-21.5c0.4-1.3,1.3-2,2.8-2h45.4c0.4,0,0.8,0.1,1.2,0.2c0.4,0.1,0.7,0.3,0.9,0.6c0.2,0.3,0.2,0.7,0.1,1.2
		c-4.2,22.7-14.6,40.1-31.3,52.4c-16.6,12.3-37.8,18.4-63.5,18.4c-30.8,0-54.9-9.6-72.2-28.9C104.5,902.5,95.8,876.9,95.8,844.9z
		 M298.4,944.8V745.1c0-1.3,0.5-2,1.6-2h38.7c1.8,0,3.1,0.8,3.9,2.4l4.1,12c1,2,2.2,2.3,3.5,1c13-13,27.9-19.5,44.8-19.5h22
		c1.4,0,2.2,0.7,2.2,2v42.5c0,1.3-0.7,2-2.2,2H391c-14.8,0-25.9,4.3-33.2,12.9c-7.3,8.6-11,19.4-11,32.5v114c0,1.3-0.7,2-2,2H300
		C299,946.7,298.4,946.1,298.4,944.8z M410.7,844.9c0-31.7,9-57.3,27.1-76.8c18.1-19.5,41.8-29.2,71.1-29.2
		c29.3,0,53.1,9.8,71.1,29.4c18.1,19.6,27.1,45.1,27.1,76.6c-0.3,6.3-1,11.8-2.2,16.5c-0.4,1.3-1.1,2-2,2H463c-1.3,0-2,0.7-2,2
		c0,11.4,4.5,21.1,13.5,29.1c9,8,20.5,12,34.5,12c19.9,0,32.9-6,38.9-18.1c0.7-1.3,1.8-2,3.3-2h47c0.7,0,1.2,0.2,1.7,0.6
		c0.5,0.4,0.6,0.9,0.5,1.4c-4.3,19.3-14.8,34.5-31.5,45.6c-16.7,11.1-36.7,16.7-59.8,16.7c-29.4,0-53.1-9.8-71.1-29.3
		C419.7,901.8,410.7,876.4,410.7,844.9z M461,821.5c0,1.1,0.5,1.6,1.6,1.6H554c1,0,1.6-0.5,1.6-1.6c0-9.5-4-18.2-12-26.3
		c-8-8-19.5-12.1-34.6-12.1c-14.9,0-26.7,4.1-35.2,12.2C465.2,803.6,461,812.3,461,821.5z M613.5,886c0-18.3,7.7-33.8,23.1-46.4
		c15.4-12.6,37.1-18.9,65.2-18.9h37.7c3.8,0,6.8-0.9,8.9-2.8c2.2-1.8,3.2-3.9,3.2-6.1c0-2.2-0.2-4.3-0.6-6.3c-0.4-2-1.4-4.4-3-7.3
		c-1.6-2.9-3.9-5.4-6.7-7.4c-2.8-2-7-3.8-12.5-5.3c-5.5-1.5-12-2.3-19.5-2.3c-25.6,0-39.1,8.9-40.7,26.7c0,1.3-0.7,2-2,2h-44.4
		c-1.3,0-2-0.7-2-2c0-11.5,2.4-21.9,7.1-31c4.7-9.2,11.3-16.6,19.5-22.3s17.7-10,28.3-13.1c10.6-3,21.9-4.5,34.1-4.5
		c28.4,0,50.6,6.5,66.6,19.6c16,13.1,24,32,24,56.8v78.3c0,3.9,1.3,7,4,9.3c2.7,2.3,6.1,3.4,10.4,3.4h6c1.3,0,1.9,0.7,1.9,2v36.4
		c0,1.3-0.7,2-2,2h-20.6c-17.4,0-30.5-6.4-39.3-19.3c-1.1-1.4-2.3-1.4-3.8,0c-6.3,6.3-14.9,11.7-25.7,16.3
		c-10.8,4.6-23.4,6.9-37.8,6.9c-26.3,0-46.2-6-59.7-17.9C620.2,920.8,613.5,905.2,613.5,886z M661.9,886c0,5.2,2.5,10,7.6,14.2
		c5,4.2,13,6.3,23.9,6.3c19.1,0,33.6-4.4,43.5-13.2c9.9-8.8,14.8-18.9,14.8-30.3c0-1.3-0.7-2-2.2-2h-45.8c-6.8,0-12.8,0.6-18,1.7
		c-5.2,1.1-9.2,2.5-12.2,4.1c-2.9,1.6-5.3,3.6-7.2,5.9c-1.8,2.3-3,4.5-3.6,6.6C662.2,881.4,661.9,883.6,661.9,886z M802,783.4v-38.3
		c0-1.3,0.7-2,2-2h33c1.3,0,2-0.7,2-2.2v-54.2c0-1.3,0.7-2,2-2h44.4c1.3,0,2,0.7,2,2v54.2c0,1.4,0.7,2.2,2,2.2h41.1c1.3,0,2,0.7,2,2
		v38.3c0,1.3-0.7,2-2,2h-41.1c-1.3,0-2,0.7-2,2v102.2c0,3.9,1.4,7.1,4.1,9.4c2.8,2.4,6.2,3.5,10.4,3.5h28.5c1.3,0,2,0.7,2,2v40.3
		c0,1.3-0.7,2-2,2h-31.4c-21.2,0-36.5-4.4-45.9-13.3c-9.4-8.8-14.1-23.4-14.1-43.5V787.3c0-1.3-0.7-2-2-2h-33
		C802.6,785.4,802,784.7,802,783.4z M944.4,718.5v-53.3c0-1.3,0.7-2,2-2h52.3c1.3,0,2,0.7,2,2v53.3c0,1.3-0.7,2-2,2h-52.3
		C945,720.5,944.4,719.8,944.4,718.5z M948.3,944.8V745.1c0-1.3,0.7-2,2-2h44.4c1.3,0,2,0.7,2,2v199.7c0,1.3-0.7,2-2,2h-44.4
		C949,946.7,948.3,946.1,948.3,944.8z M1003.7,745.9c-0.4-0.8-0.3-1.4,0.2-2c0.5-0.5,1.2-0.8,2-0.8h46.2c1.6,0,2.6,0.9,2.9,2.8
		l48.5,155.1c0.3,0.9,1,1.4,2.2,1.4s1.8-0.5,2-1.4l48.7-155.1c0.4-1.8,1.4-2.8,3.1-2.8h45.2c0.8,0,1.4,0.3,2,0.8
		c0.5,0.5,0.6,1.1,0.2,1.9l-66.4,198.9c-0.4,1.4-1.2,2-2.5,2H1073c-1.3,0-2.2-0.7-2.5-2L1003.7,745.9z M1211.9,718.5v-53.3
		c0-1.3,0.7-2,2-2h52.3c1.3,0,2,0.7,2,2v53.3c0,1.3-0.7,2-2,2h-52.3C1212.6,720.5,1211.9,719.8,1211.9,718.5z M1215.9,944.8V745.1
		c0-1.3,0.7-2,2-2h44.4c1.3,0,2,0.7,2,2v199.7c0,1.3-0.7,2-2,2h-44.4C1216.5,946.7,1215.9,946.1,1215.9,944.8z M1276.6,783.4v-38.3
		c0-1.3,0.7-2,2-2h33c1.3,0,2-0.7,2-2.2v-54.2c0-1.3,0.7-2,2-2h44.4c1.3,0,2,0.7,2,2v54.2c0,1.4,0.7,2.2,2,2.2h41.1c1.3,0,2,0.7,2,2
		v38.3c0,1.3-0.7,2-2,2h-41.1c-1.3,0-2,0.7-2,2v102.2c0,3.9,1.4,7.1,4.1,9.4c2.8,2.4,6.2,3.5,10.4,3.5h28.5c1.3,0,2,0.7,2,2v40.3
		c0,1.3-0.7,2-2,2h-31.4c-21.2,0-36.5-4.4-45.9-13.3c-9.4-8.8-14.1-23.4-14.1-43.5V787.3c0-1.3-0.7-2-2-2h-33
		C1277.3,785.4,1276.6,784.7,1276.6,783.4z M1412.5,745.1c-0.4-1.3,0.3-2,2-2h47c1.2,0,2,0.7,2.3,2l48.7,155.9
		c0.1,0.9,0.8,1.3,2.1,1.3c1.2,0,2-0.5,2.3-1.4l48.5-155.9c0.4-1.3,1.2-2,2.6-2h46.5c1.7,0,2.4,0.7,2,2l-66.9,199.7l-10.4,30.9
		c-5.9,17.4-14,30.3-24.3,38.5c-10.3,8.3-23.9,12.4-40.8,12.4h-59.2c-1.3,0-2-0.7-2-2.2v-38.1c0-1.3,0.7-2,2-2h49.1
		c6.2,0,10.9-1,14.2-3.1c3.3-2.1,5.3-5.1,5.8-9.1c0.5-4,0.4-8.1-0.3-12.2c-0.7-4.1-2.1-9.1-4-15.1L1412.5,745.1z"/>
</g>
</svg>
